<svg width="594" height="321" viewBox="0 0 594 321" fill="none" xmlns="http://www.w3.org/2000/svg">
<g clip-path="url(#clip0_423_163)">
<path d="M283.536 60.5206C280.451 49.2654 273.366 43.7734 260.721 43.7734C244.075 43.7734 234.515 55.6727 234.515 76.4879C234.515 97.3032 244.075 109.169 260.721 109.169C266.037 109.537 271.322 108.105 275.725 105.104C280.128 102.103 283.393 97.7072 284.994 92.6248L273.434 89.6415C269.705 97.1337 266.281 99.066 260.653 99.066C251.262 99.066 246.754 91.5061 247.093 76.6235C247.432 61.741 252.144 54.1472 260.484 54.1472C263.196 54.1262 265.837 55.0171 267.983 56.677C270.128 58.3369 271.654 60.6695 272.315 63.3004L283.536 60.5206Z" fill="black"/>
<path d="M306.589 108.422V82.5214H317.336L329.642 108.422H343.473L329.065 80.0466C332.661 79.1496 335.828 77.0194 338.015 74.0274C340.202 71.0353 341.27 67.3708 341.033 63.6724C341.033 53.1631 334.964 44.7896 320.116 44.7896H294.114V108.422H306.589ZM306.589 54.6548H317.98C324.76 54.6548 328.557 57.6719 328.557 63.6724C328.557 69.6729 325.574 72.6562 315.81 72.6562H306.589V54.6548Z" fill="black"/>
<path d="M375.239 57.1301L382.561 84.6916H367.374L375.239 57.1301ZM348.559 108.49H360.932L364.831 94.7263H385.443L389.07 108.49H401.478L382.934 44.8579H367.374L348.559 108.49Z" fill="black"/>
<path d="M421.717 108.423V63.1313H421.92L448.6 108.423H460.635V44.8247H448.872V88.1502H448.668L423.005 44.8247H409.953V108.423H421.717Z" fill="black"/>
<path d="M519.759 108.423V98.1849H488.027V80.4208H510.368V70.1827H488.027V55.0289H518.776V44.8247H475.552V108.423H519.759Z" fill="black"/>
<path d="M196.987 4.5835H557.931V149.782H196.987V4.5835Z" stroke="black" stroke-width="1.69515" stroke-miterlimit="2.61313"/>
<path d="M208.479 185.954C210.242 185.954 210.649 185.954 210.886 186.836L212.242 191.141C212.655 192.242 212.972 193.376 213.192 194.531C213.192 194.836 212.988 195.209 211.836 195.379L210.242 195.65C210.114 195.758 210.011 195.893 209.94 196.046C209.869 196.198 209.832 196.364 209.832 196.532C209.832 196.699 209.869 196.865 209.94 197.018C210.011 197.17 210.114 197.305 210.242 197.413C212.548 197.413 214.48 197.413 217.022 197.413C219.565 197.413 222.345 197.413 224.752 197.413C225.193 197.108 225.091 195.887 224.752 195.65L222.853 195.345C220.989 195.04 220.548 193.887 219.463 190.904L212.683 171.275C211.429 167.885 210.852 165.851 210.446 164.495C210.242 163.715 209.937 163.478 209.293 163.478C208.123 164.848 206.615 165.888 204.92 166.495C204.72 168.706 204.098 170.858 203.089 172.835L198.512 185.073C197.156 188.667 196.207 191.073 195.36 193.074C195.171 193.752 194.776 194.355 194.229 194.798C193.682 195.242 193.011 195.504 192.309 195.548H190.953C190.614 195.955 190.546 197.006 191.122 197.311C193.427 197.311 194.512 197.311 196.275 197.311C198.038 197.311 200.174 197.311 201.936 197.311C202.411 197.04 202.309 195.887 201.936 195.548L200.411 195.277C199.021 195.04 198.377 194.735 198.377 194.43C198.393 193.816 198.507 193.21 198.716 192.633L200.682 186.836C200.987 185.887 201.123 185.853 202.309 185.853L208.479 185.954ZM203.632 183.175C202.377 183.175 202.14 183.175 202.581 181.683L203.632 177.92C204.377 175.615 205.394 172.936 205.767 171.784C206.242 172.835 207.123 175.513 207.835 177.683L209.124 181.751C209.53 183.039 209.293 183.175 208.14 183.175H203.632Z" fill="black"/>
<path d="M242.177 168.359C242.177 166.528 242.177 166.426 243.804 166.426H247.703C249.478 166.269 251.244 166.817 252.619 167.952C253.486 169.144 254.119 170.49 254.483 171.918C254.992 172.359 256.144 172.257 256.348 171.715C256.077 168.325 255.738 164.935 255.704 163.952C255.026 163.952 252.314 164.121 248.924 164.121H238.516C236.109 164.121 233.634 164.121 231.295 164.121C231.181 164.235 231.091 164.369 231.029 164.518C230.968 164.666 230.936 164.825 230.936 164.986C230.936 165.146 230.968 165.305 231.029 165.454C231.091 165.602 231.181 165.737 231.295 165.85L232.549 166.121C234.787 166.562 235.092 166.867 235.092 171.41V190.089C235.092 194.666 234.787 194.971 232.549 195.31L230.21 195.683C230.012 195.934 229.905 196.245 229.905 196.564C229.905 196.884 230.012 197.195 230.21 197.446C233.939 197.446 236.414 197.446 238.821 197.446H245.296C249.398 197.446 254.212 197.446 256.89 197.446C257.942 194.855 258.615 192.126 258.89 189.344C258.797 189.189 258.671 189.058 258.521 188.958C258.371 188.859 258.2 188.794 258.022 188.768C257.844 188.742 257.662 188.756 257.49 188.809C257.318 188.861 257.159 188.951 257.026 189.072C254.28 194.734 252.585 194.903 248.212 194.903C244.55 194.903 243.601 194.497 242.957 193.581C242.271 192.099 242.001 190.459 242.177 188.835V182.835C242.177 181.343 242.177 181.275 243.567 181.275H246.957C249.534 181.275 250.144 181.682 250.653 184.089L250.89 185.343C251.229 185.784 252.517 185.75 252.754 185.343C252.754 183.716 252.754 181.953 252.754 180.021C252.754 178.088 252.754 176.326 252.754 174.698C252.517 174.258 251.229 174.258 250.89 174.698L250.653 175.953C250.144 178.36 249.534 178.699 246.957 178.699H243.567C242.211 178.699 242.177 178.699 242.177 177.207V168.359Z" fill="black"/>
<path d="M270.484 189.955C270.484 194.532 270.179 194.905 267.942 195.277L266.586 195.549C266.179 195.786 266.179 197.006 266.586 197.312C269.162 197.312 271.366 197.312 273.874 197.312C276.383 197.312 278.587 197.312 281.231 197.312C281.413 197.054 281.511 196.746 281.511 196.43C281.511 196.114 281.413 195.806 281.231 195.549L279.909 195.277C277.637 194.905 277.332 194.532 277.332 189.955V183.785C277.332 182.802 277.332 182.7 279.197 182.7C279.768 182.648 280.34 182.79 280.82 183.104C281.3 183.418 281.66 183.885 281.841 184.429C282.963 187.102 284.266 189.696 285.74 192.192C286.682 193.914 288.102 195.325 289.828 196.258C291.554 197.19 293.514 197.603 295.469 197.447C296.807 197.531 298.149 197.381 299.436 197.006C299.573 196.806 299.628 196.561 299.59 196.322C299.553 196.082 299.425 195.866 299.232 195.718C297.986 195.591 296.806 195.095 295.842 194.294C292.508 190.637 289.876 186.396 288.079 181.785C287.808 181.242 287.808 180.937 288.316 180.7C289.863 180.135 291.201 179.112 292.152 177.768C293.103 176.423 293.622 174.821 293.639 173.174C293.684 171.632 293.298 170.108 292.526 168.773C291.754 167.438 290.625 166.344 289.266 165.614C286.18 164.236 282.808 163.62 279.434 163.817C274.688 163.817 270.789 164.021 267.026 164.292C266.899 164.397 266.796 164.529 266.725 164.678C266.654 164.828 266.618 164.991 266.618 165.156C266.618 165.322 266.654 165.485 266.725 165.634C266.796 165.784 266.899 165.916 267.026 166.021L268.383 166.224C270.484 166.529 270.586 167.072 270.586 172.089V189.819L270.484 189.955ZM277.265 168.835C277.265 166.428 277.265 166.258 279.434 166.258C280.361 166.286 281.273 166.505 282.112 166.899C282.952 167.294 283.701 167.856 284.315 168.552C284.928 169.248 285.392 170.063 285.678 170.945C285.964 171.827 286.066 172.759 285.977 173.683C286.079 174.667 285.978 175.663 285.681 176.607C285.383 177.552 284.896 178.426 284.248 179.174C283.757 179.674 283.163 180.06 282.507 180.306C281.851 180.552 281.15 180.651 280.451 180.598C277.502 180.598 277.332 180.598 277.332 178.7V169.004L277.265 168.835Z" fill="black"/>
<path d="M322.285 163.308C319.938 163.22 317.598 163.612 315.408 164.462C313.219 165.311 311.226 166.599 309.553 168.247C307.879 169.895 306.561 171.868 305.678 174.044C304.795 176.221 304.367 178.555 304.419 180.903C304.329 183.188 304.72 185.466 305.566 187.59C306.412 189.715 307.694 191.638 309.33 193.236C310.967 194.834 312.92 196.07 315.064 196.865C317.208 197.661 319.495 197.997 321.777 197.853C332.557 197.853 339.846 191.31 339.846 180.394C339.921 178.089 339.514 175.795 338.652 173.656C337.789 171.517 336.49 169.582 334.838 167.974C333.185 166.366 331.215 165.121 329.054 164.317C326.892 163.514 324.587 163.17 322.285 163.308ZM331.845 181.14C331.845 189.242 329.303 195.65 322.726 195.65C314.556 195.65 312.556 185.852 312.556 179.75C312.556 171.376 315.946 165.613 322.014 165.613C328.082 165.613 331.981 172.394 331.981 181.14H331.845Z" fill="black"/>
<path d="M371.442 187.785C371.36 185.589 370.649 183.462 369.393 181.659C368.137 179.856 366.388 178.452 364.357 177.615L360.966 175.886C359.771 175.411 358.72 174.633 357.917 173.629C357.115 172.624 356.588 171.427 356.39 170.156C356.404 169.505 356.555 168.864 356.831 168.274C357.108 167.684 357.504 167.159 357.996 166.731C358.487 166.303 359.063 165.983 359.685 165.791C360.308 165.598 360.963 165.538 361.61 165.614C365.204 165.614 367.374 169.275 368.391 171.817C368.52 171.947 368.673 172.049 368.842 172.119C369.01 172.189 369.191 172.225 369.374 172.225C369.556 172.225 369.737 172.189 369.906 172.119C370.075 172.049 370.228 171.947 370.357 171.817C370.418 169.4 370.109 166.988 369.442 164.664C368.867 164.573 368.3 164.437 367.747 164.258C365.897 163.714 363.979 163.44 362.051 163.444C354.763 163.444 350.355 167.343 350.423 173.004C350.646 175.127 351.455 177.145 352.76 178.834C354.066 180.522 355.816 181.814 357.814 182.564C360.797 184.09 364.594 186.463 364.594 190.531C364.606 191.23 364.471 191.923 364.198 192.567C363.925 193.21 363.519 193.789 363.007 194.265C362.496 194.742 361.89 195.105 361.229 195.332C360.567 195.559 359.866 195.644 359.17 195.582C354.932 195.582 351.576 190.972 350.559 187.717C350.429 187.59 350.274 187.493 350.103 187.433C349.933 187.372 349.751 187.349 349.571 187.365C349.39 187.381 349.215 187.436 349.058 187.526C348.901 187.616 348.765 187.739 348.66 187.887C348.483 190.68 349.032 193.471 350.254 195.989C352.881 197.34 355.811 197.993 358.763 197.887C366.323 197.887 371.408 193.887 371.408 187.717L371.442 187.785Z" fill="black"/>
<path d="M384.358 189.921C384.358 194.6 384.087 194.939 381.815 195.346L380.425 195.583C379.849 195.854 379.951 197.007 380.425 197.312C383.104 197.312 385.511 197.312 387.918 197.312C390.325 197.312 392.799 197.312 395.579 197.312C395.713 197.211 395.821 197.08 395.895 196.93C395.97 196.78 396.009 196.615 396.009 196.447C396.009 196.28 395.97 196.115 395.895 195.965C395.821 195.815 395.713 195.684 395.579 195.583L393.986 195.346C391.748 195.007 391.443 194.6 391.443 189.921V168.801C391.443 166.801 391.443 166.258 393.376 166.258C397.884 166.258 399.783 170.259 399.783 173.954C399.783 177.649 398.935 180.734 394.799 181.921C394.709 182.009 394.638 182.115 394.589 182.231C394.54 182.347 394.515 182.472 394.515 182.599C394.515 182.725 394.54 182.85 394.589 182.966C394.638 183.083 394.709 183.188 394.799 183.277C395.33 183.311 395.862 183.311 396.393 183.277C399.071 183.277 407.309 182.056 407.309 173.852C407.354 171.947 406.784 170.079 405.686 168.522C404.587 166.965 403.017 165.803 401.207 165.208C398.263 164.206 395.16 163.758 392.053 163.885C387.68 163.885 383.782 164.089 380.493 164.36C380.371 164.465 380.274 164.595 380.206 164.741C380.139 164.888 380.105 165.047 380.105 165.208C380.105 165.368 380.139 165.527 380.206 165.674C380.274 165.82 380.371 165.95 380.493 166.055L382.019 166.258C384.121 166.496 384.222 167.106 384.222 172.157V189.854L384.358 189.921Z" fill="black"/>
<path d="M426.056 185.954C427.819 185.954 428.226 185.954 428.463 186.836L429.819 191.141C430.232 192.242 430.549 193.376 430.768 194.531C430.768 194.836 430.565 195.209 429.412 195.379L427.819 195.65C427.691 195.758 427.587 195.893 427.517 196.046C427.446 196.198 427.409 196.364 427.409 196.532C427.409 196.699 427.446 196.865 427.517 197.018C427.587 197.17 427.691 197.305 427.819 197.413C430.124 197.413 432.057 197.413 434.599 197.413C437.142 197.413 439.922 197.413 442.329 197.413C442.769 197.108 442.668 195.887 442.329 195.65L440.43 195.345C438.566 195.04 438.125 193.887 437.04 190.904L430.26 171.275C429.006 167.885 428.395 165.851 428.023 164.495C427.819 163.715 427.514 163.478 426.87 163.478C425.7 164.848 424.192 165.888 422.497 166.495C422.297 168.706 421.675 170.858 420.666 172.835L416.089 185.073C414.733 188.667 413.784 191.073 412.937 193.074C412.748 193.752 412.353 194.355 411.806 194.798C411.259 195.242 410.588 195.504 409.885 195.548H408.529C408.19 195.955 408.123 197.006 408.529 197.311C410.835 197.311 411.92 197.311 413.716 197.311C415.513 197.311 417.615 197.311 419.378 197.311C419.852 197.04 419.751 195.887 419.378 195.548L417.852 195.277C416.462 195.04 415.818 194.735 415.818 194.43C415.834 193.816 415.949 193.21 416.157 192.633L418.123 186.836C418.395 185.887 418.564 185.853 419.751 185.853L426.056 185.954ZM421.107 183.276C419.852 183.276 419.615 183.276 420.056 181.785L421.31 178.022C422.056 175.716 423.039 173.038 423.446 171.885C423.92 172.936 424.802 175.615 425.514 177.784L426.802 181.852C427.209 183.141 426.802 183.276 425.819 183.276H421.107Z" fill="black"/>
<path d="M467.585 163.309C462.587 163.166 457.691 164.746 453.72 167.784C451.773 169.388 450.221 171.417 449.18 173.715C448.14 176.012 447.64 178.518 447.719 181.039C447.646 183.577 448.187 186.096 449.297 188.38C450.407 190.665 452.052 192.647 454.093 194.159C458.104 196.812 462.847 198.14 467.653 197.956C471.112 197.82 474.535 197.204 477.823 196.125C478.941 193.644 479.584 190.977 479.722 188.26C479.51 187.97 479.197 187.771 478.846 187.701C478.494 187.632 478.128 187.699 477.823 187.887C477.179 190.097 475.844 192.044 474.014 193.441C472.184 194.838 469.955 195.612 467.653 195.65C461.652 195.65 455.889 190.294 455.889 180.327C455.889 170.36 461.856 165.614 467.416 165.614C469.576 165.493 471.709 166.146 473.431 167.458C475.152 168.769 476.349 170.652 476.806 172.767C476.951 172.875 477.117 172.952 477.293 172.994C477.468 173.035 477.651 173.04 477.829 173.009C478.007 172.977 478.176 172.909 478.327 172.809C478.478 172.709 478.606 172.58 478.705 172.428C478.361 169.831 478.169 167.216 478.128 164.597C474.777 163.905 471.376 163.475 467.958 163.309H467.585Z" fill="black"/>
<path d="M498.808 168.359C498.808 166.528 498.808 166.426 500.469 166.426H504.469C506.245 166.269 508.011 166.817 509.385 167.952C510.264 169.141 510.909 170.488 511.284 171.918C511.792 172.359 512.945 172.257 513.148 171.715C512.877 168.325 512.538 164.935 512.47 163.952C511.826 163.952 509.08 164.121 505.69 164.121H495.181C492.807 164.121 490.333 164.121 487.994 164.121C487.88 164.235 487.789 164.369 487.728 164.518C487.666 164.666 487.635 164.825 487.635 164.986C487.635 165.146 487.666 165.305 487.728 165.454C487.789 165.602 487.88 165.737 487.994 165.85L489.248 166.121C491.485 166.562 491.79 166.867 491.79 171.41V190.089C491.79 194.666 491.485 194.971 489.248 195.31L486.875 195.683C486.677 195.934 486.569 196.245 486.569 196.564C486.569 196.884 486.677 197.195 486.875 197.446C490.638 197.446 493.079 197.446 495.486 197.446H501.961C506.063 197.446 510.877 197.446 513.521 197.446C514.602 194.864 515.276 192.131 515.521 189.344C515.431 189.19 515.309 189.059 515.161 188.96C515.014 188.86 514.847 188.795 514.671 188.769C514.495 188.743 514.316 188.757 514.146 188.809C513.977 188.862 513.821 188.952 513.691 189.072C510.945 194.734 509.216 194.903 504.876 194.903C501.215 194.903 500.266 194.497 499.622 193.581C498.919 192.104 498.637 190.462 498.808 188.835V182.835C498.808 181.343 498.808 181.275 500.198 181.275H503.588C506.198 181.275 506.809 181.682 507.283 184.089L507.554 185.343C507.819 185.555 508.148 185.67 508.487 185.67C508.826 185.67 509.154 185.555 509.419 185.343C509.419 183.716 509.419 181.953 509.419 180.021C509.419 178.088 509.419 176.326 509.419 174.698C509.152 174.492 508.824 174.38 508.487 174.38C508.149 174.38 507.821 174.492 507.554 174.698L507.283 175.953C506.809 178.36 506.198 178.699 503.588 178.699H500.198C498.876 178.699 498.808 178.699 498.808 177.207V168.359Z" fill="black"/>
<path d="M546.778 165.105C545.703 165.068 544.631 165.247 543.625 165.629C542.62 166.012 541.7 166.591 540.921 167.332C540.141 168.074 539.517 168.963 539.085 169.949C538.653 170.934 538.422 171.996 538.404 173.071C538.479 174.263 538.823 175.421 539.411 176.461C539.998 177.5 540.813 178.393 541.795 179.072C539.679 179.769 537.815 181.072 536.435 182.82C535.054 184.568 534.219 186.684 534.031 188.903C534.031 194.056 538.099 197.853 544.744 197.853C546.686 197.795 548.595 197.331 550.347 196.49C552.098 195.649 553.654 194.451 554.914 192.971C555.423 194.056 556.236 195.107 556.575 195.717C557.374 196.529 558.35 197.144 559.426 197.515C560.503 197.886 561.65 198.001 562.779 197.853C564.628 197.923 566.471 197.603 568.188 196.913C569.906 196.224 571.459 195.181 572.746 193.853C572.783 193.61 572.749 193.362 572.646 193.139C572.544 192.916 572.378 192.728 572.17 192.598C570.805 193.423 569.254 193.89 567.661 193.954C563.288 193.954 562 191.005 560.237 188.7C559.491 187.479 559.389 187.038 559.389 187.242C559.538 186.769 559.78 186.331 560.101 185.954L563.084 181.377C564.139 179.574 565.402 177.901 566.847 176.394C567.813 175.579 568.987 175.051 570.238 174.868L571.594 174.665C572.136 174.393 572.034 173.139 571.594 172.936C568.983 172.936 565.593 173.241 561.728 173.241H559.66C559.118 173.241 559.084 174.665 559.66 174.97L560.576 175.139C561.423 175.139 561.898 175.58 561.898 176.021C561.616 177.192 561.207 178.329 560.677 179.411C559.901 181.23 559.006 182.997 557.999 184.699C556.005 181.887 553.469 179.501 550.541 177.682C551.999 176.8 555.152 175.309 555.152 171.681C555.135 170.707 554.914 169.747 554.502 168.864C554.091 167.981 553.498 167.194 552.763 166.555C552.028 165.915 551.166 165.438 550.235 165.153C549.303 164.868 548.321 164.782 547.354 164.901L546.778 165.105ZM540.54 187.005C540.511 185.787 540.811 184.584 541.407 183.522C542.004 182.46 542.875 181.579 543.93 180.97C544.202 180.97 544.541 181.275 545.151 181.682C548.155 183.618 550.701 186.186 552.609 189.208C553.219 190.259 553.423 190.496 553.423 190.666C552.719 191.62 551.806 192.4 550.754 192.946C549.702 193.493 548.539 193.791 547.354 193.819C546.455 193.852 545.558 193.699 544.721 193.37C543.883 193.041 543.122 192.543 542.486 191.907C541.85 191.27 541.351 190.51 541.022 189.672C540.693 188.834 540.541 187.938 540.574 187.038L540.54 187.005ZM549.863 171.105C549.903 172.078 549.732 173.047 549.364 173.948C548.995 174.849 548.437 175.66 547.727 176.326C546.642 175.891 545.702 175.157 545.018 174.208C544.334 173.26 543.933 172.137 543.863 170.969C543.787 170.086 544.06 169.207 544.624 168.523C545.188 167.839 545.998 167.402 546.88 167.308C548.914 167.308 549.863 169.274 549.863 171.105Z" fill="black"/>
<path d="M205.123 221.314C205.123 219.449 205.123 219.348 206.784 219.348H210.785C212.565 219.2 214.331 219.76 215.7 220.907C216.58 222.084 217.225 223.419 217.599 224.84C218.107 225.314 219.26 225.212 219.429 224.84C219.192 221.449 218.853 217.856 218.785 217.076C218.141 217.076 215.395 217.076 212.005 217.076H201.462C199.089 217.076 196.614 217.076 194.275 217.076C194.043 217.311 193.913 217.628 193.913 217.958C193.913 218.288 194.043 218.604 194.275 218.839L195.529 219.076C197.767 219.517 198.072 219.822 198.072 224.399V243.044C198.072 247.655 197.767 247.96 195.529 248.299L193.156 248.638C192.958 248.889 192.85 249.2 192.85 249.519C192.85 249.839 192.958 250.15 193.156 250.401C196.919 250.401 199.36 250.401 201.767 250.401H208.276C212.378 250.401 217.192 250.401 219.836 250.401C220.933 247.854 221.641 245.157 221.938 242.4C221.845 242.249 221.72 242.121 221.572 242.025C221.423 241.929 221.255 241.867 221.079 241.844C220.904 241.822 220.726 241.838 220.557 241.894C220.389 241.949 220.235 242.041 220.107 242.163C217.361 247.824 215.632 247.96 211.259 247.96C207.632 247.96 206.683 247.553 206.038 246.672C205.338 245.182 205.056 243.529 205.225 241.892V235.756C205.225 234.264 205.225 234.23 206.615 234.23H210.005C212.615 234.23 213.395 234.637 213.7 237.01L213.971 238.264C214.23 238.489 214.561 238.612 214.904 238.612C215.246 238.612 215.577 238.489 215.836 238.264C215.836 236.671 215.836 234.874 215.836 232.942C215.836 231.01 215.836 229.247 215.836 227.653C215.565 227.179 214.31 227.179 213.971 227.653L213.7 228.908C213.226 231.315 212.615 231.654 210.005 231.654H206.615C205.293 231.654 205.225 231.654 205.225 230.162V221.314H205.123Z" fill="black"/>
<path d="M240.923 224.262C240.923 219.584 241.194 219.211 243.465 218.838L244.754 218.635C244.949 218.389 245.055 218.084 245.055 217.77C245.055 217.456 244.949 217.152 244.754 216.906C242.245 216.906 239.77 216.906 237.363 216.906C234.956 216.906 232.447 216.906 229.837 216.906C229.709 217.011 229.606 217.143 229.536 217.292C229.465 217.442 229.428 217.605 229.428 217.77C229.428 217.936 229.465 218.099 229.536 218.248C229.606 218.398 229.709 218.53 229.837 218.635L231.295 218.838C233.532 219.143 233.837 219.584 233.837 224.262V242.874C233.837 247.518 233.532 247.925 231.295 248.23L229.396 248.468C229.193 248.716 229.081 249.028 229.081 249.349C229.081 249.67 229.193 249.982 229.396 250.23C232.515 250.23 235.024 250.23 237.329 250.23H244.109C248.211 250.23 252.992 250.23 255.67 250.23C256.77 247.643 257.511 244.917 257.873 242.128C257.772 241.979 257.641 241.853 257.49 241.756C257.338 241.659 257.168 241.595 256.99 241.566C256.812 241.538 256.63 241.546 256.456 241.59C256.281 241.634 256.118 241.713 255.975 241.823C253.025 247.654 251.635 247.79 247.059 247.79C243.398 247.79 242.516 247.383 241.872 246.535C241.114 245.076 240.819 243.421 241.024 241.789V224.262H240.923Z" fill="black"/>
<path d="M276.146 221.314C276.146 219.449 276.146 219.348 277.773 219.348H281.807C282.684 219.266 283.568 219.361 284.407 219.629C285.246 219.897 286.022 220.332 286.689 220.907C287.582 222.08 288.239 223.416 288.621 224.84C289.096 225.314 290.249 225.212 290.452 224.84C290.215 221.449 289.842 217.856 289.808 217.076C289.164 217.076 286.418 217.076 283.028 217.076H272.485C270.078 217.076 267.637 217.076 265.264 217.076C265.047 217.319 264.927 217.632 264.927 217.958C264.927 218.283 265.047 218.597 265.264 218.839L266.518 219.076C268.789 219.517 269.094 219.822 269.094 224.399V243.044C269.094 247.655 268.789 247.96 266.518 248.299L264.179 248.638C263.981 248.889 263.873 249.2 263.873 249.519C263.873 249.839 263.981 250.15 264.179 250.401C267.942 250.401 270.383 250.401 272.79 250.401H279.299C283.401 250.401 288.215 250.401 290.859 250.401C291.956 247.854 292.664 245.157 292.961 242.4C292.865 242.249 292.736 242.12 292.585 242.024C292.433 241.928 292.262 241.866 292.084 241.843C291.906 241.821 291.725 241.838 291.555 241.893C291.384 241.948 291.227 242.04 291.096 242.163C288.35 247.824 286.655 247.96 282.282 247.96C278.655 247.96 277.705 247.553 277.027 246.672C276.357 245.173 276.088 243.526 276.248 241.892V235.756C276.248 234.264 276.248 234.23 277.638 234.23H281.028C283.638 234.23 284.214 234.637 284.723 237.01L284.96 238.264C285.219 238.489 285.55 238.612 285.892 238.612C286.235 238.612 286.566 238.489 286.825 238.264C286.825 236.671 286.825 234.874 286.825 232.942C286.825 231.01 286.825 229.247 286.825 227.653C286.587 227.179 285.333 227.179 284.96 227.653L284.723 228.908C284.214 231.315 283.638 231.654 281.028 231.654H277.638C276.282 231.654 276.248 231.654 276.248 230.162V221.314H276.146Z" fill="black"/>
<path d="M320.929 216.228C315.922 216.096 311.02 217.675 307.03 220.703C305.081 222.307 303.525 224.335 302.479 226.632C301.433 228.929 300.926 231.435 300.995 233.958C300.929 236.477 301.471 238.976 302.574 241.242C303.678 243.508 305.311 245.474 307.335 246.976C311.337 249.654 316.084 250.995 320.895 250.807C324.355 250.657 327.778 250.03 331.066 248.942C332.15 246.451 332.793 243.789 332.964 241.077C332.748 240.793 332.433 240.6 332.081 240.537C331.729 240.475 331.367 240.546 331.066 240.738C330.407 242.94 329.069 244.878 327.242 246.272C325.415 247.667 323.193 248.447 320.895 248.501C314.895 248.501 309.132 243.145 309.132 233.178C309.132 223.211 315.098 218.431 320.658 218.431C322.825 218.304 324.965 218.96 326.689 220.279C328.413 221.599 329.605 223.493 330.049 225.618C330.357 225.817 330.73 225.889 331.09 225.819C331.45 225.75 331.769 225.544 331.981 225.245C331.613 222.662 331.41 220.057 331.371 217.448C328.024 216.72 324.622 216.277 321.2 216.126L320.929 216.228Z" fill="black"/>
<path d="M352.254 242.875C352.254 247.519 351.949 247.96 349.711 248.231L347.474 248.468C347.276 248.72 347.168 249.03 347.168 249.35C347.168 249.67 347.276 249.98 347.474 250.231C350.864 250.231 353.576 250.231 355.983 250.231C358.39 250.231 360.729 250.231 363.984 250.231C364.149 249.967 364.237 249.662 364.237 249.35C364.237 249.038 364.149 248.733 363.984 248.468L361.983 248.231C359.712 247.926 359.441 247.519 359.441 242.875V220.805C359.441 219.483 359.441 219.347 360.763 219.347H363.78C367.543 219.347 368.255 221.687 369.103 224.907C369.34 225.314 370.696 225.212 370.933 224.907C370.844 222.018 371.094 219.128 371.679 216.296C371.585 216.191 371.47 216.107 371.342 216.048C371.213 215.99 371.074 215.959 370.933 215.957C370.707 215.953 370.484 216.012 370.289 216.127C369.848 217.178 369.103 217.212 365.78 217.212H347.169C343.338 217.212 343.202 217.008 342.965 216.161C342.752 216.026 342.505 215.956 342.253 215.957C341.992 215.964 341.741 216.06 341.541 216.228C341.194 219.09 340.639 221.923 339.88 224.704C340.069 225.008 340.369 225.227 340.717 225.316C341.064 225.404 341.432 225.355 341.744 225.178C343.236 221.517 344.287 219.517 347.948 219.517H351.067C352.254 219.517 352.254 219.754 352.254 220.975V243.044V242.875Z" fill="black"/>
<path d="M383.51 242.874C383.51 247.485 383.205 247.824 380.968 248.23L379.612 248.468C379.414 248.719 379.306 249.029 379.306 249.349C379.306 249.669 379.414 249.979 379.612 250.231C382.222 250.231 384.426 250.231 386.934 250.231C389.443 250.231 391.613 250.231 394.291 250.231C394.456 249.966 394.544 249.661 394.544 249.349C394.544 249.037 394.456 248.732 394.291 248.468L392.935 248.23C390.664 247.824 390.359 247.485 390.359 242.874V236.806C390.359 235.823 390.358 235.721 392.223 235.721C392.8 235.664 393.378 235.809 393.86 236.13C394.342 236.452 394.698 236.93 394.867 237.484C395.988 240.153 397.302 242.736 398.8 245.213C399.754 246.91 401.174 248.297 402.893 249.211C404.611 250.124 406.556 250.525 408.496 250.366C409.833 250.433 411.172 250.284 412.462 249.926C412.594 249.718 412.646 249.469 412.608 249.226C412.571 248.983 412.447 248.762 412.259 248.603C411.011 248.507 409.825 248.021 408.868 247.213C405.562 243.535 402.933 239.3 401.105 234.704C400.868 234.128 400.868 233.823 401.342 233.585C402.827 233.035 404.119 232.065 405.063 230.794C406.006 229.523 406.56 228.005 406.657 226.425C406.754 224.845 406.39 223.271 405.609 221.894C404.828 220.517 403.664 219.396 402.258 218.669C399.172 217.291 395.8 216.674 392.426 216.872C387.68 216.872 383.782 217.075 380.019 217.313C379.89 217.421 379.787 217.556 379.716 217.708C379.645 217.86 379.609 218.026 379.609 218.194C379.609 218.362 379.645 218.528 379.716 218.68C379.787 218.832 379.89 218.967 380.019 219.076L381.375 219.279C383.477 219.55 383.578 220.127 383.578 225.11V242.84L383.51 242.874ZM390.291 221.754C390.291 219.347 390.291 219.211 392.46 219.211C393.403 219.198 394.337 219.389 395.2 219.769C396.063 220.149 396.834 220.71 397.461 221.414C398.088 222.118 398.556 222.949 398.834 223.85C399.112 224.75 399.193 225.701 399.071 226.635C399.148 227.614 399.029 228.598 398.721 229.529C398.412 230.461 397.92 231.321 397.274 232.06C396.777 232.547 396.18 232.92 395.525 233.154C394.869 233.388 394.171 233.478 393.477 233.416C390.528 233.416 390.359 233.416 390.359 231.517V221.754H390.291Z" fill="black"/>
<path d="M435.447 216.229C433.1 216.14 430.76 216.533 428.57 217.382C426.38 218.231 424.388 219.52 422.714 221.168C421.041 222.816 419.722 224.788 418.84 226.965C417.957 229.141 417.529 231.475 417.581 233.823C417.491 236.108 417.882 238.386 418.728 240.511C419.574 242.635 420.856 244.559 422.492 246.156C424.128 247.754 426.081 248.991 428.225 249.786C430.369 250.581 432.656 250.918 434.938 250.774C445.719 250.774 453.008 244.197 453.008 233.281C453.097 230.968 452.701 228.662 451.845 226.511C450.989 224.36 449.692 222.412 448.038 220.793C446.384 219.174 444.409 217.919 442.24 217.11C440.072 216.3 437.758 215.954 435.447 216.093V216.229ZM445.007 234.06C445.007 242.197 442.464 248.604 435.888 248.604C427.717 248.604 425.717 238.773 425.717 232.671C425.717 224.297 429.107 218.534 435.176 218.534C441.244 218.534 445.143 225.517 445.143 234.06H445.007Z" fill="black"/>
<path d="M493.689 229.619C493.539 226.537 493.79 223.449 494.435 220.431C494.875 219.381 495.825 219.008 497.147 218.804H498.028C498.203 218.55 498.297 218.248 498.297 217.94C498.297 217.631 498.203 217.33 498.028 217.075C496.096 217.075 494.299 217.075 492.435 217.075C490.57 217.075 488.434 217.075 485.654 217.075C485.479 217.33 485.386 217.631 485.386 217.94C485.386 218.248 485.479 218.55 485.654 218.804L487.01 219.008C488.366 219.211 489.451 219.55 489.926 220.601C490.571 223.618 490.822 226.706 490.672 229.788V236.568C490.724 237.32 490.655 238.076 490.468 238.806C489.316 237.653 487.858 235.89 485.654 233.314L481.62 228.297C477.111 222.94 473.857 219.143 473.348 216.906C472.297 216.906 470.84 216.906 469.145 216.906C467.45 216.906 464.602 216.906 462.364 216.906C461.856 216.906 461.822 218.228 462.161 218.635L463.585 218.838C465.314 219.109 466.026 219.686 466.432 220.533C466.808 221.924 466.923 223.372 466.771 224.805V237.518C466.934 240.596 466.706 243.683 466.093 246.705C465.687 247.756 464.67 248.095 463.314 248.332H462.466C462.291 248.586 462.197 248.888 462.197 249.197C462.197 249.505 462.291 249.807 462.466 250.061C464.365 250.061 466.229 250.061 468.094 250.061C469.958 250.061 472.094 250.061 474.874 250.061C475.033 249.801 475.116 249.501 475.116 249.197C475.116 248.892 475.033 248.592 474.874 248.332L473.45 248.129C472.162 247.925 471.009 247.586 470.568 246.535C469.891 243.523 469.629 240.432 469.789 237.348V227.822C469.667 226.741 469.759 225.647 470.06 224.601C471.994 226.637 473.816 228.775 475.518 231.009L487.078 245.349C489.417 248.23 491.079 250.807 491.146 250.807C491.69 250.824 492.232 250.73 492.739 250.532C493.246 250.334 493.707 250.035 494.096 249.654C494.096 247.993 494.096 244.84 494.096 241.586V229.619H493.689Z" fill="black"/>
<path d="M517.386 224.364C517.386 219.652 517.657 219.313 519.962 218.906L521.386 218.669C521.584 218.417 521.692 218.107 521.692 217.787C521.692 217.467 521.584 217.157 521.386 216.906C518.674 216.906 516.165 216.906 513.826 216.906C511.487 216.906 508.911 216.906 506.198 216.906C506 217.157 505.893 217.467 505.893 217.787C505.893 218.107 506 218.417 506.198 218.669L507.622 218.906C509.928 219.313 510.199 219.652 510.199 224.364V242.772C510.199 247.485 509.928 247.824 507.622 248.23L506.198 248.468C506 248.719 505.893 249.029 505.893 249.349C505.893 249.669 506 249.979 506.198 250.23C508.911 250.23 511.419 250.23 513.826 250.23C516.233 250.23 518.64 250.23 521.318 250.23C521.516 249.979 521.624 249.669 521.624 249.349C521.624 249.029 521.516 248.719 521.318 248.468L519.894 248.23C517.589 247.824 517.318 247.485 517.318 242.772V224.364H517.386Z" fill="black"/>
<path d="M551.016 216.228C546.02 216.101 541.13 217.68 537.15 220.703C535.191 222.3 533.626 224.326 532.574 226.624C531.521 228.922 531.011 231.431 531.082 233.958C531.02 236.48 531.566 238.98 532.676 241.247C533.785 243.513 535.425 245.478 537.455 246.976C541.456 249.656 546.204 250.997 551.016 250.807C554.476 250.66 557.899 250.033 561.186 248.942C562.303 246.462 562.947 243.794 563.084 241.077C562.873 240.786 562.557 240.588 562.203 240.525C561.849 240.462 561.485 240.538 561.186 240.738C560.532 242.943 559.195 244.883 557.367 246.279C555.539 247.674 553.315 248.453 551.016 248.501C545.015 248.501 539.252 243.145 539.252 233.178C539.252 223.211 545.218 218.431 550.778 218.431C552.944 218.311 555.081 218.97 556.803 220.288C558.525 221.606 559.719 223.497 560.169 225.618C560.317 225.72 560.485 225.791 560.661 225.827C560.838 225.864 561.02 225.865 561.196 225.83C561.373 225.795 561.541 225.726 561.691 225.625C561.84 225.525 561.968 225.396 562.067 225.245C561.724 222.66 561.532 220.056 561.491 217.448C558.088 216.713 554.629 216.271 551.151 216.126L551.016 216.228Z" fill="black"/>
<path d="M593.494 240.738C593.419 238.544 592.715 236.419 591.464 234.615C590.214 232.812 588.47 231.406 586.442 230.568L583.052 228.805C581.89 228.342 580.868 227.587 580.084 226.613C579.3 225.639 578.781 224.479 578.577 223.245C578.569 222.593 578.699 221.947 578.957 221.349C579.216 220.751 579.597 220.213 580.077 219.772C580.556 219.331 581.123 218.995 581.741 218.788C582.359 218.58 583.013 218.505 583.662 218.567C587.29 218.567 589.425 222.228 590.442 224.804C590.917 225.279 592.171 225.245 592.409 224.804C592.47 222.387 592.161 219.975 591.493 217.651C590.919 217.556 590.353 217.42 589.798 217.244C587.949 216.699 586.031 216.425 584.103 216.431C576.848 216.431 572.441 220.363 572.475 226.025C572.715 228.151 573.538 230.17 574.855 231.857C576.171 233.545 577.929 234.835 579.933 235.585C582.95 237.076 586.713 239.483 586.713 243.518C586.73 244.216 586.599 244.911 586.33 245.556C586.061 246.2 585.659 246.782 585.151 247.261C584.643 247.741 584.039 248.108 583.38 248.339C582.72 248.57 582.02 248.66 581.323 248.603C577.052 248.603 573.695 243.992 572.678 240.738C572.561 240.602 572.415 240.492 572.251 240.417C572.087 240.342 571.909 240.303 571.729 240.303C571.549 240.303 571.371 240.342 571.207 240.417C571.043 240.492 570.898 240.602 570.78 240.738C570.605 243.534 571.166 246.328 572.407 248.84C575.029 250.207 577.961 250.873 580.916 250.773C588.476 250.773 593.527 246.738 593.527 240.602L593.494 240.738Z" fill="black"/>
<path d="M540.608 139.476H541.896L543.896 142.866H545.151L543.015 139.476C543.282 139.477 543.546 139.423 543.792 139.318C544.037 139.212 544.258 139.058 544.442 138.865C544.626 138.672 544.769 138.443 544.862 138.192C544.954 137.942 544.995 137.675 544.981 137.408C544.981 135.951 544.1 135.273 542.303 135.273H539.455V142.765H540.608V139.375V139.476ZM540.608 136.086H542.167C543.489 136.086 543.829 136.493 543.829 137.205C543.829 137.917 543.354 138.425 541.964 138.425H540.608V136.086ZM535.387 138.866C535.367 140.17 535.735 141.45 536.443 142.544C537.152 143.638 538.17 144.497 539.368 145.011C540.566 145.525 541.89 145.672 543.171 145.433C544.453 145.193 545.634 144.578 546.565 143.666C547.497 142.754 548.136 141.586 548.402 140.309C548.668 139.033 548.548 137.707 548.059 136.499C547.569 135.29 546.732 134.255 545.653 133.523C544.574 132.792 543.301 132.398 541.998 132.391C541.136 132.373 540.28 132.527 539.478 132.844C538.677 133.162 537.947 133.636 537.331 134.239C536.716 134.842 536.227 135.562 535.893 136.357C535.559 137.151 535.387 138.004 535.387 138.866ZM547.286 138.866C547.266 139.916 546.936 140.936 546.338 141.798C545.74 142.661 544.899 143.327 543.923 143.713C542.947 144.1 541.879 144.189 540.852 143.969C539.826 143.75 538.887 143.232 538.154 142.48C537.421 141.728 536.927 140.777 536.734 139.745C536.54 138.713 536.656 137.647 537.067 136.681C537.478 135.715 538.165 134.892 539.043 134.316C539.92 133.74 540.948 133.435 541.998 133.442C542.705 133.437 543.406 133.575 544.059 133.848C544.712 134.12 545.303 134.522 545.797 135.028C546.291 135.535 546.677 136.136 546.933 136.795C547.189 137.455 547.309 138.159 547.286 138.866Z" fill="black"/>
<path fill-rule="evenodd" clip-rule="evenodd" d="M3.17474 0.990234H177.291V194.362H3.17474V0.990234Z" fill="#0F0F0F"/>
<path fill-rule="evenodd" clip-rule="evenodd" d="M21.6509 194.362C14.381 212.283 9.65677 231.134 7.61589 250.366C2.36123 302.065 33.6858 327.254 80.7743 309.286C108.743 298.608 141.796 273.758 177.291 242.332C142.915 273.826 110.506 299.591 82.6389 312.1C80.0398 313.298 77.4633 314.349 74.9095 315.253C26.7022 333.085 -2.45272 299.15 0.428867 250.366C1.69821 231.322 5.3309 212.51 11.2433 194.362H21.6509Z" fill="#0F0F0F"/>
<path fill-rule="evenodd" clip-rule="evenodd" d="M146.61 0.990234H177.121V4.68545C130.27 42.7563 86.5035 86.8955 56.7384 130.56C42.7494 150.483 30.9834 171.878 21.6508 194.362H11.2432C19.6017 168.528 31.1735 143.847 45.6867 120.898C67.4512 86.1836 100.878 45.6718 146.61 0.990234Z" fill="#282828"/>
<path fill-rule="evenodd" clip-rule="evenodd" d="M21.6508 194.362H11.2432C19.6017 168.528 31.1735 143.847 45.6867 120.898C67.7224 85.7429 99.9283 46.3159 146.644 0.990234L177.155 4.58374C128.371 43.5699 87.5545 85.336 56.7384 130.56C42.7494 150.483 30.9834 171.878 21.6508 194.362Z" fill="#E0E0E0"/>
</g>
<defs>
<clipPath id="clip0_423_163">
<rect width="593.268" height="319.077" fill="white" transform="translate(0.225342 0.990234)"/>
</clipPath>
</defs>
</svg>
