<svg xmlns="http://www.w3.org/2000/svg" width="483" height="148" fill="none" viewBox="0 0 483 148"><g clip-path="url(#clip0_423_199)"><path fill="#000" fill-rule="evenodd" d="M71.7617 6.23876C84.6997 5.79262 100.315 8.46946 102.991 16.9461C107.899 31.2226 83.8075 51.2989 63.285 61.5601C58.3775 64.2369 55.2545 64.6831 53.9161 64.6831C52.5777 64.6831 52.5777 63.3447 53.0238 62.4524C53.9161 61.114 57.0391 57.991 61.5005 54.868C84.6998 37.9147 92.2841 25.4228 87.8227 20.0691C85.1459 16.9461 73.1001 14.7154 61.0543 14.7154C57.9314 14.7154 49.0086 15.6077 48.1163 12.4847C46.7779 10.254 58.8236 7.13104 71.7617 6.23876Z" clip-rule="evenodd"/><path fill="#000" fill-rule="evenodd" d="M42.3167 70.4821C53.024 70.0359 66.4082 71.8205 73.5464 76.728C77.1156 79.4049 79.7924 83.8663 78.454 89.2199C73.9926 104.389 58.3777 122.68 23.1326 136.511C11.9791 140.972 3.05634 142.757 1.27179 141.418C-0.512774 140.08 5.28704 130.265 6.62546 126.696C12.4253 115.988 19.1174 105.727 26.2556 95.912C28.9325 92.3429 32.5016 86.5431 36.0707 86.9892C39.1937 87.4354 35.6246 93.6813 32.9477 98.1427C28.9325 104.835 17.779 124.019 21.3481 125.357C29.3786 128.034 68.1928 101.712 62.3929 86.9892C59.7161 80.2971 43.2089 79.4049 32.5016 79.4049C27.594 79.4049 17.3328 80.2972 16.4405 77.1742C16.4405 74.0512 32.9477 70.9282 42.3167 70.4821Z" clip-rule="evenodd"/><path fill="#000" fill-rule="evenodd" d="M126.637 52.6363C133.329 53.5286 138.682 54.4209 139.575 57.0977C140.913 59.7746 133.775 60.2207 130.206 60.2207C112.806 60.6668 102.545 60.6668 102.099 66.0205C101.207 72.7126 109.237 79.8509 117.268 89.2198C124.406 98.1426 132.883 106.619 130.206 114.65C127.083 124.911 113.699 126.696 100.761 126.696C88.2687 126.696 76.669 124.911 71.7615 124.019C65.5155 123.126 66.4078 120.003 68.1924 119.111C69.9769 118.219 80.6843 118.219 87.8225 117.773C93.6223 117.327 111.022 117.327 114.145 113.311C117.268 108.404 109.237 99.9271 101.653 91.0043C92.2839 79.8508 82.0227 68.6974 87.3764 60.2207C94.9608 49.9595 115.483 50.8518 126.637 52.6363Z" clip-rule="evenodd"/><path fill="#000" d="M329.184 83.4213H335.43L337.215 74.4986H356.845L355.061 83.4213H361.307C362.199 83.4213 363.091 82.9752 363.091 82.0829L366.214 66.9142C368.445 55.3145 361.306 52.6377 351.938 52.6377C340.338 52.6377 333.646 55.3145 331.415 66.9142L328.292 82.0829C327.846 82.9752 328.292 83.4213 329.184 83.4213ZM339 65.5758C340.338 59.7759 343.907 57.5452 350.599 57.5452C357.737 57.5452 359.522 59.7759 358.184 65.5758C358.184 65.5758 357.737 66.9142 357.737 67.3603C357.737 67.8065 357.291 69.591 355.507 69.591H337.661L339 65.5758ZM207.388 83.4213H213.634L215.419 74.4986H235.049L233.264 83.4213H239.51C240.403 83.4213 241.295 82.9752 241.295 82.0829L244.418 66.9142C246.649 55.3145 239.51 52.6377 230.141 52.6377C218.542 52.6377 211.85 55.3145 209.619 66.9142L206.05 82.0829C206.05 82.9752 206.496 83.4213 207.388 83.4213ZM217.203 65.5758C218.542 59.7759 222.111 57.5452 228.803 57.5452C235.941 57.5452 237.726 59.7759 236.387 65.5758C236.387 65.5758 235.941 66.9142 235.941 67.3603C235.941 67.8065 235.495 69.591 233.71 69.591H215.865L217.203 65.5758ZM308.662 97.6978L309.108 95.021H277.432C275.648 95.021 274.755 95.4671 274.755 96.8055L274.309 99.9285H287.247L281.894 125.358H287.693C289.478 125.358 290.37 124.912 290.816 123.128L295.724 99.4824H306.431C307.77 99.9285 308.662 99.0362 308.662 97.6978ZM221.219 95.9133L218.096 109.744C212.742 111.082 199.804 113.759 201.588 103.944L203.373 95.021H197.127C196.235 95.021 195.789 95.4671 195.789 95.9133L194.004 104.39C190.435 120.005 206.942 118.22 217.649 115.097L214.973 125.358H220.772C222.557 125.358 223.449 124.912 223.895 123.128L229.695 95.021H222.557C222.111 95.021 221.219 95.4671 221.219 95.9133ZM405.028 96.8055L398.782 125.358H429.566L430.012 122.236C430.458 120.897 430.012 120.451 428.228 120.451H407.705L409.49 112.42H427.335C427.781 112.42 428.228 111.974 428.228 111.528L429.12 108.405C429.12 107.959 429.12 107.513 428.674 107.513H410.828L412.613 99.4824H432.243C433.135 99.4824 434.027 99.4824 434.473 98.144L435.366 94.5748H407.705C405.92 95.021 405.028 95.4671 405.028 96.8055ZM314.016 96.8055L307.77 125.358H338.553L339 122.236C339.446 120.897 339 120.451 337.215 120.451H316.693L318.477 112.42H336.323C336.769 112.42 337.215 111.974 337.215 111.528L338.107 108.405C338.107 107.959 338.107 107.513 337.661 107.513H319.815L321.6 99.4824H341.23C342.123 99.4824 343.015 99.4824 343.461 98.144L344.353 94.5748H316.693C314.908 95.021 314.462 95.4671 314.016 96.8055ZM393.429 95.021H385.844L371.122 107.067L361.753 95.4671H354.168C352.83 95.4671 352.384 96.3594 351.938 97.2517L346.138 125.358H352.384C353.722 125.358 354.614 124.912 354.614 123.574L359.076 102.159L366.66 111.974C366.66 112.42 367.552 112.867 368.445 112.867H371.568C372.46 112.867 373.352 112.42 373.798 111.974L385.398 102.605L380.937 124.02C380.491 125.358 381.383 125.805 382.721 125.805H388.967L395.213 97.2517C394.767 95.9133 394.767 95.021 393.429 95.021ZM446.073 80.2984C446.519 78.9599 445.627 78.5138 444.735 78.5138H426.889L432.243 53.9761C432.243 53.53 431.797 53.0838 431.35 53.0838H424.212L417.966 83.4213H446.073V80.2984ZM166.79 61.5605C165.897 61.5605 165.451 62.0066 165.451 62.4528L160.99 83.4213H180.62C191.773 83.4213 199.358 79.8522 201.588 68.2526C203.373 59.7759 199.358 53.0838 188.204 53.0838H164.559C164.559 53.0838 164.559 53.0838 164.559 53.53C164.113 55.7607 164.113 57.9914 168.128 57.9914H185.527C194.004 57.9914 194.896 62.0066 193.558 68.6987C191.773 75.3908 189.096 78.5138 182.851 78.9599H171.251L174.82 61.5605H166.79ZM450.981 53.0838C449.196 53.0838 448.304 53.53 448.304 54.8684L447.858 57.9914H460.796L455.442 83.4213H461.242C463.026 83.4213 463.919 82.9752 464.365 81.1906L469.272 57.5452H479.98C481.318 57.5452 482.21 57.0991 482.21 55.7607L482.657 53.0838H450.981ZM281.894 78.0677C282.786 75.837 282.786 73.6063 280.555 70.9294C279.217 69.591 277.878 68.6987 275.202 67.3603C264.94 62.0066 262.263 61.5605 262.71 58.8837C263.156 57.5452 264.048 57.5452 268.063 57.5452H280.109C281.894 57.5452 282.786 57.0991 282.786 55.7607L283.232 53.0838H268.509C259.587 53.0838 254.679 53.0838 253.341 58.8837C252.448 63.3451 256.017 65.1296 263.602 69.591C271.632 74.0524 273.417 74.4986 272.971 77.1754C272.525 78.96 270.294 79.4061 266.725 79.4061H252.448C250.664 79.4061 249.772 79.8522 249.772 81.1906L249.325 83.8675H267.617C274.755 83.4213 279.663 82.9752 281.894 78.0677ZM320.262 78.0677C321.154 75.837 321.154 73.6063 318.923 70.9294C317.585 69.591 316.246 68.6987 313.57 67.3603C303.308 62.0066 300.631 61.5605 301.078 58.8837C301.524 57.5452 302.416 57.5452 306.431 57.5452H318.477C320.262 57.5452 321.154 57.0991 321.154 55.7607L321.6 53.0838H305.985C297.062 53.0838 292.155 53.0838 290.816 58.8837C289.924 63.3451 293.493 65.1296 301.078 69.591C309.108 74.0524 310.893 74.4986 310.447 77.1754C310 78.96 307.77 79.4061 304.201 79.4061H289.924C288.14 79.4061 287.247 79.8522 287.247 81.1906L286.801 83.8675H305.093C313.123 83.4213 318.477 82.9752 320.262 78.0677ZM440.719 100.821C439.827 105.282 443.396 107.067 450.981 111.528C459.011 115.99 460.796 116.436 460.35 119.113C459.903 120.897 457.673 121.343 454.104 121.343H439.827C438.043 121.343 437.15 121.789 437.15 123.128L435.366 125.358H453.657C462.134 125.358 467.042 124.912 469.272 120.451C470.165 118.22 470.165 115.99 467.934 113.313C466.596 111.974 465.257 111.082 462.58 109.744C452.319 104.39 449.642 103.944 450.088 101.267C450.534 99.9285 451.427 99.9285 455.442 99.9285H467.488C469.272 99.9285 470.165 99.4824 470.165 98.144L470.611 95.4671H455.888C446.965 95.021 442.058 95.021 440.719 100.821ZM237.28 100.821C236.387 105.282 239.956 107.067 247.541 111.528C255.571 115.99 257.356 116.436 256.91 119.113C256.464 120.897 254.233 121.343 250.664 121.343H236.387C234.603 121.343 233.71 121.789 233.71 123.128L232.372 125.358H250.664C259.14 125.358 264.048 124.912 266.279 120.451C267.171 118.22 267.171 115.99 264.94 113.313C263.602 111.974 262.263 111.082 259.587 109.744C249.325 104.39 246.649 103.944 247.095 101.267C247.541 99.9285 248.433 99.9285 252.448 99.9285H264.494C266.279 99.9285 267.171 99.4824 267.171 98.144L267.617 95.4671H252.002C243.972 95.021 238.618 95.021 237.28 100.821ZM156.974 100.821C156.082 105.282 159.651 107.067 167.236 111.528C175.266 115.99 177.051 116.436 176.605 119.113C176.158 120.897 173.928 121.343 170.359 121.343H156.082C154.298 121.343 153.405 121.789 153.405 123.128L152.067 125.358H170.359C178.835 125.358 183.743 124.912 185.974 120.451C186.866 118.22 186.866 115.99 184.635 113.313C183.297 111.974 181.958 111.082 179.281 109.744C169.02 104.39 166.343 103.944 166.79 101.267C167.236 99.9285 168.128 99.9285 172.143 99.9285H184.189C185.974 99.9285 186.866 99.4824 186.866 98.144L187.312 95.4671H171.697C163.667 95.021 158.313 95.021 156.974 100.821ZM389.859 83.8675C403.69 83.8675 409.043 79.4061 410.828 69.591L413.951 53.9761C413.951 53.0838 413.505 52.6377 412.613 52.6377H405.921L404.136 61.5605L403.244 66.468L402.351 70.9294C401.013 76.7292 396.998 78.9599 390.306 78.9599C382.721 78.9599 380.937 76.2831 382.275 70.9294C382.275 70.9294 382.721 69.591 382.721 69.1449L384.06 62.0066L385.844 53.0838H379.152C378.26 53.0838 377.368 53.53 377.368 54.4223L374.245 70.0372C372.014 80.7445 377.814 83.8675 389.859 83.8675Z"/></g><defs><clipPath id="clip0_423_199"><rect width="481.831" height="147.226" fill="#fff" transform="translate(0.825439 0.438477)"/></clipPath></defs></svg>