<svg width="445" height="250" viewBox="0 0 445 250" fill="none" xmlns="http://www.w3.org/2000/svg">
<path d="M330.831 205.914C330.424 200.23 324.892 195.292 316.085 189.166C308.025 183.549 299.693 174.233 290.037 163.44C288.001 161.167 285.863 158.774 281.587 154.107H275.071C280.365 159.86 283.47 163.322 286.457 166.648C296.316 177.661 304.834 187.163 313.336 193.103C322.109 199.228 325.791 203.03 326.029 206.254C326.029 206.356 326.029 206.474 326.029 206.576C326.029 209.953 322.296 214.161 316.696 219.405L315.847 220.202C309.28 226.379 304.529 230.842 301.508 230.214C299.167 229.722 296.469 225.887 293.278 218.472C288.85 208.222 277.955 198.278 267.417 188.674C262.649 184.33 258.152 180.24 254.436 176.269C247.156 168.514 241.438 162.1 236.822 156.704L233.089 159.741C237.755 165.222 243.559 171.704 250.923 179.561C254.775 183.651 259.34 187.825 264.159 192.22C274.324 201.485 284.828 211.056 288.833 220.355C292.905 229.807 296.299 234.032 300.507 234.898C305.971 236.035 311.198 231.114 319.123 223.681L319.971 222.884C327.115 216.181 331.188 211.243 330.797 205.863L330.831 205.914Z" fill="black"/>
<path d="M119.242 100.823C121.618 103.369 125.623 103.488 128.168 101.112L140.25 89.8274C141.71 88.4529 142.439 86.4505 142.202 84.4651C141.557 79.578 141.896 77.338 145.053 74.3684C147.615 71.9588 152.298 70.6522 156.982 73.1806C162.327 76.0654 179.025 91.151 195.264 110.004L198.37 106.22C181.791 87.0614 164.991 72.0437 159.273 68.9383C152.485 65.273 145.596 67.2584 141.761 70.8389C137.128 75.183 136.67 79.1877 137.433 85.0421C137.484 85.5002 137.315 85.9584 136.975 86.2978L124.893 97.5823C124.282 98.1423 123.332 98.1253 122.772 97.5144L102.731 76.1502C102.171 75.5563 102.188 74.606 102.799 74.0291L114.881 62.7445C115.17 62.473 115.56 62.3203 115.95 62.3373C119.293 62.4391 124.231 62.1167 128.457 58.1459C130.934 55.8211 134.837 50.934 134.837 43.1791C134.837 42.8906 134.803 42.5851 134.803 42.2797C167.401 15.9775 190.92 9.46129 215.135 9.00312C213.269 11.4637 211.47 12.94 208.263 13.8393L206.091 14.3824C199.863 15.8756 188.273 18.6586 174.121 33.2521C170.965 36.4932 169.386 41.2276 169.386 45.8941C169.386 50.2722 170.778 54.5993 173.595 57.6198C176.632 60.861 191.888 76.3369 209.281 92.9158L212.352 89.1825C195.163 72.7903 180.111 57.535 177.107 54.3278C173.408 50.374 172.899 41.4143 177.566 36.595C190.751 23.0027 201.051 20.5252 207.211 19.0489L209.553 18.455C216.086 16.6223 218.58 12.7533 221.736 7.86619L224.095 4.20084L219.734 4.14993C192.6 3.87843 167.079 9.74976 130.782 39.3101L129.78 40.1246L129.899 41.3973C130.544 48.4056 127.184 52.6988 125.131 54.6333C122.229 57.3483 118.767 57.6029 116.069 57.535C114.389 57.4841 112.777 58.078 111.555 59.2319L99.4734 70.5164C96.928 72.9091 96.8092 76.8969 99.1849 79.4422L119.226 100.806L119.242 100.823Z" fill="black"/>
<path d="M197.199 176.591C197.131 171.84 196.961 160.657 196.961 160.657C196.961 160.657 136.992 206.355 114.508 223.494C123.196 212.922 145.697 185.517 171.525 154.09H165.297L97.6746 236.39C97.6746 236.39 88.5282 247.607 87.9343 248.32C87.3064 249.066 88.0022 249.762 88.6809 249.27C89.4955 248.676 101.001 239.835 101.001 239.835C101.001 239.835 185.304 175.59 192.312 170.261C192.38 174.996 192.566 186.586 192.566 186.586L232.444 154.09H224.825C208.959 167.02 199.201 174.979 197.233 176.574L197.199 176.591Z" fill="black"/>
<path d="M204.513 113.941C226.861 86.6887 243.084 66.9366 245.68 63.7803C245.968 71.0601 246.715 89.5226 246.715 89.5226C246.715 89.5226 309.416 20.7974 316.815 12.6861V79.1714C316.153 79.7144 298.624 93.9855 274.188 113.907H281.807L321.617 81.4622V0.264648C321.617 0.264648 258.084 69.9062 251.042 77.6102C250.754 70.551 249.973 50.9346 249.973 50.9346L198.268 113.924H204.496L204.513 113.941Z" fill="black"/>
<path d="M413.217 118.862L412.555 120.779H427.301C427.454 120.779 427.59 120.847 427.675 120.966C427.759 121.085 427.776 121.237 427.742 121.373L427.573 121.865C427.505 122.052 427.335 122.171 427.148 122.171H422.227C421.65 122.171 421.141 122.544 420.955 123.087L412.063 149.304H424.315L433.987 120.762H444.338L445 118.845H413.234L413.217 118.862Z" fill="black"/>
<path d="M392.26 120.779H394.788C395.654 120.779 396.468 121.203 396.977 121.899C397.486 122.612 397.622 123.511 397.334 124.342L395.908 128.534H408.075L410.264 122.425C410.536 121.593 410.417 120.694 409.908 119.981C409.399 119.269 408.584 118.861 407.719 118.861H380.67C379.516 118.861 378.481 119.591 378.107 120.694L369.606 145.757C369.334 146.589 369.453 147.488 369.962 148.201C370.471 148.914 371.286 149.321 372.151 149.321H397.435L397.978 147.675C397.978 147.675 397.978 147.539 397.944 147.471C397.894 147.42 397.826 147.387 397.758 147.387H385.014C384.148 147.387 383.317 146.962 382.825 146.25C382.316 145.537 382.18 144.638 382.469 143.806L389.663 122.612C390.037 121.509 391.072 120.779 392.226 120.779H392.26Z" fill="black"/>
<path d="M350.261 118.861L333.631 149.321H336.974L343.372 137.595C343.456 137.443 343.592 137.358 343.762 137.358H351.856C352.111 137.358 352.314 137.561 352.314 137.816V149.321H365.109V118.861H350.261ZM352.314 134.982C352.314 135.237 352.111 135.44 351.856 135.44H345.306C345.153 135.44 345.001 135.355 344.916 135.22C344.831 135.084 344.831 134.914 344.916 134.778L351.89 122.018C351.941 121.933 352.043 121.882 352.145 121.916C352.246 121.933 352.314 122.035 352.314 122.136V134.999V134.982Z" fill="black"/>
<path d="M340.724 119.981C340.215 119.269 339.401 118.861 338.535 118.861H309.857L299.523 149.321H311.758L316.289 135.932C316.475 135.389 316.984 135.016 317.561 135.016H334.887C336.041 135.016 337.076 134.269 337.449 133.166L341.081 122.425C341.369 121.593 341.216 120.694 340.724 119.981ZM328.235 124.342L325.893 131.249C325.52 132.352 324.485 133.082 323.331 133.082H319.123C318.681 133.082 318.274 132.878 318.02 132.522C317.765 132.165 317.697 131.707 317.833 131.3L320.31 123.969C320.446 123.562 320.378 123.104 320.124 122.747C319.869 122.391 319.462 122.187 319.021 122.187H315.457C315.305 122.187 315.169 122.119 315.084 122.001C314.999 121.882 314.982 121.729 315.016 121.593L315.186 121.084C315.254 120.898 315.423 120.779 315.61 120.779H325.639C326.504 120.779 327.336 121.203 327.828 121.899C328.337 122.612 328.473 123.511 328.184 124.342H328.235Z" fill="black"/>
<path d="M292.464 149.321L302.849 118.861H287.696L273.73 145.011C273.679 145.096 273.577 145.147 273.476 145.113C273.374 145.079 273.306 144.994 273.306 144.892L274.137 118.861H259.883L249.549 149.321H252.654L261.529 123.138C261.563 123.036 261.665 122.968 261.784 122.985C261.903 123.002 261.97 123.104 261.97 123.205L261.105 149.321H274.799L288.629 123.358C288.697 123.256 288.816 123.205 288.917 123.239C289.019 123.273 289.07 123.392 289.036 123.494L280.229 149.321H292.464Z" fill="black"/>
<path d="M230.374 149.321H242.558L252.892 118.861H240.708L230.374 149.321Z" fill="black"/>
<path d="M232.054 119.981C231.528 119.269 230.713 118.861 229.831 118.861H202.985C201.831 118.861 200.796 119.591 200.423 120.694L191.921 145.757C191.65 146.589 191.769 147.488 192.278 148.201C192.787 148.914 193.601 149.321 194.467 149.321H221.414C222.551 149.321 223.552 148.608 223.925 147.539L232.444 122.442C232.715 121.61 232.546 120.711 232.037 119.998L232.054 119.981ZM219.615 124.342L212.437 145.537C212.064 146.64 211.029 147.37 209.875 147.37H207.346C206.481 147.37 205.65 146.945 205.157 146.233C204.648 145.52 204.513 144.621 204.801 143.789L211.979 122.595C212.352 121.492 213.387 120.762 214.541 120.762H217.07C217.935 120.762 218.767 121.186 219.259 121.882C219.768 122.595 219.904 123.494 219.615 124.325V124.342Z" fill="black"/>
<path d="M192.465 119.981C191.955 119.269 191.141 118.861 190.275 118.861H162.853L152.519 149.321H164.72L169.251 135.915C169.437 135.372 169.946 134.999 170.523 134.999H171.779C172.152 134.999 172.492 135.152 172.746 135.406C173.001 135.678 173.137 136.017 173.12 136.391L172.526 149.321H184.201L184.777 137.273C184.794 136.543 184.523 135.831 184.014 135.304C183.505 134.778 182.809 134.49 182.079 134.49H180.349C180.196 134.49 180.06 134.422 179.975 134.303C179.89 134.185 179.873 134.032 179.907 133.896L180.077 133.387C180.145 133.2 180.315 133.082 180.501 133.082H187.272C188.426 133.082 189.461 132.352 189.834 131.249L192.821 122.442C193.109 121.61 192.974 120.711 192.465 119.998V119.981ZM181.214 124.342L178.872 131.232C178.499 132.335 177.464 133.065 176.31 133.065H172.101C171.66 133.065 171.253 132.861 170.998 132.505C170.744 132.148 170.676 131.69 170.812 131.283L173.289 123.952C173.425 123.545 173.357 123.087 173.103 122.73C172.848 122.374 172.441 122.17 172 122.17H168.385C168.233 122.17 168.097 122.102 168.012 121.984C167.927 121.865 167.91 121.712 167.944 121.576L168.114 121.067C168.182 120.881 168.351 120.762 168.538 120.762H178.601C179.466 120.762 180.298 121.186 180.79 121.882C181.299 122.595 181.435 123.494 181.146 124.325L181.214 124.342Z" fill="black"/>
<path d="M160.41 118.862H128.626L127.965 120.779H142.711C142.863 120.779 142.999 120.847 143.084 120.966C143.169 121.085 143.186 121.237 143.152 121.373L142.982 121.865C142.914 122.052 142.745 122.171 142.558 122.171H137.637C137.06 122.171 136.551 122.544 136.364 123.087L127.472 149.304H139.724L149.397 120.762H159.782L160.444 118.845L160.41 118.862Z" fill="black"/>
<path d="M125.725 122.425C126.013 121.593 125.877 120.694 125.368 119.981C124.859 119.269 124.045 118.861 123.179 118.861H96.0964C94.9425 118.861 93.9074 119.591 93.5341 120.694L85.0325 145.757C84.761 146.589 84.8798 147.488 85.3889 148.201C85.898 148.914 86.7125 149.321 87.5779 149.321H112.862L113.405 147.675C113.405 147.675 113.405 147.539 113.371 147.471C113.337 147.42 113.269 147.387 113.184 147.387H100.458C99.5921 147.387 98.7606 146.962 98.2685 146.267C97.7594 145.554 97.6237 144.654 97.9121 143.823L105.107 122.628C105.48 121.525 106.516 120.796 107.669 120.796H110.198C111.063 120.796 111.895 121.22 112.387 121.916C112.896 122.628 113.032 123.528 112.743 124.359L111.318 128.551H123.519L125.725 122.442V122.425Z" fill="black"/>
<path d="M72.9846 135.152L68.9459 147.098C68.9459 147.098 68.9459 147.234 68.9798 147.302C69.0138 147.37 69.0817 147.404 69.1665 147.404H79.2462L78.6014 149.321H55.9984L66.3327 118.861H88.9356L88.2738 120.779H72.1022C71.9155 120.779 71.7458 120.898 71.6779 121.084L71.5083 121.576C71.4573 121.712 71.4913 121.865 71.5761 121.984C71.661 122.102 71.7967 122.17 71.9495 122.17H75.5469C75.9881 122.17 76.3954 122.374 76.6499 122.73C76.9045 123.087 76.9723 123.545 76.8366 123.952L73.85 132.776C73.85 132.776 73.85 132.929 73.8839 132.98C73.9348 133.031 74.0027 133.065 74.0706 133.065H84.1503L83.5055 134.982H73.273" fill="black"/>
<path d="M36.0764 147.404C35.9237 147.404 35.7879 147.336 35.7031 147.217C35.6183 147.098 35.6013 146.945 35.6352 146.81L35.8049 146.301C35.8728 146.114 36.0425 145.995 36.2291 145.995H41.1502C41.7272 145.995 42.2362 145.622 42.4229 145.079L51.3148 118.861H39.046L28.7118 149.321H51.162L51.8069 147.404H36.0085H36.0764Z" fill="black"/>
<path d="M17.0031 135.152L12.9645 147.098C12.9645 147.098 12.9645 147.251 12.9984 147.302C13.0323 147.37 13.1002 147.404 13.1851 147.404H23.2648L22.6199 149.321H0L10.3342 118.861H32.9372L32.2754 120.779H16.1038C15.9171 120.779 15.7474 120.898 15.6795 121.084L15.5098 121.593C15.4589 121.729 15.4929 121.882 15.5777 122.001C15.6626 122.119 15.7983 122.187 15.951 122.187H19.5485C19.9897 122.187 20.397 122.391 20.6515 122.747C20.906 123.104 20.9739 123.562 20.8382 123.969L17.8516 132.793C17.8516 132.793 17.8516 132.929 17.8855 132.997C17.9195 133.048 18.0043 133.082 18.0722 133.082H28.1519L27.5071 134.999H17.2746" fill="black"/>
</svg>
