<svg xmlns="http://www.w3.org/2000/svg" width="1080" height="1080" fill="none" viewBox="0 0 1080 1080"><mask id="mask0_427_136" style="mask-type:luminance" width="960" height="893" x="62" y="32" maskUnits="userSpaceOnUse"><path fill="#fff" d="M62.668 32H1021.94V925H62.668V32Z"/></mask><g mask="url(#mask0_427_136)"><path fill="#fff" d="M319.516 1013.33L371.802 927.438H488.135L513.068 856.849H545.964V836.469H574.266V809.823H606.182L636.521 322.459L637.516 306.037H628.724V293.151H621.964V276.589H626.568V249.823H622.385V242.464H642.828V193.807H634.099V187.427H610.219L636.464 167.854L662.672 148.287L686.911 130.224V126.656H689.396V118.12H691.563L693.854 32.1616H695.781L698.083 118.12H700.266V126.656H702.766V130.209L727.021 148.271L753.229 167.844L779.474 187.412H755.578V193.792H746.865V242.464H767.339V249.823H763.182V276.651H767.698V293.209H760.953V306.094H752.146L753.172 322.521L783.448 809.823H815.396V836.469H843.682V856.849H876.568L901.495 927.438H947.042L1021.94 1079.41H63.75L159.068 1013.33H319.516ZM642.828 249.823H630.094V276.651H634.005V272.136H642.828V249.823ZM671.99 211.932C671.99 204.797 667.792 198.974 662.672 198.959C657.552 198.943 653.339 204.797 653.339 211.932V263.281H671.99V211.932ZM707.781 211.932C707.781 211.084 707.698 210.24 707.531 209.406C707.365 208.573 707.12 207.761 706.792 206.974C706.469 206.188 706.068 205.443 705.594 204.735C705.12 204.026 704.583 203.37 703.984 202.771C703.38 202.167 702.724 201.63 702.016 201.156C701.313 200.682 700.563 200.287 699.776 199.959C698.99 199.636 698.182 199.386 697.344 199.224C696.51 199.057 695.667 198.974 694.818 198.974C693.964 198.974 693.12 199.057 692.286 199.224C691.453 199.386 690.641 199.636 689.854 199.959C689.068 200.287 688.323 200.682 687.615 201.156C686.906 201.63 686.25 202.167 685.651 202.771C685.047 203.37 684.51 204.026 684.036 204.735C683.563 205.443 683.167 206.188 682.839 206.974C682.516 207.761 682.271 208.573 682.104 209.406C681.938 210.24 681.854 211.084 681.854 211.932V263.281H707.781V211.932ZM736.385 211.932C736.385 204.797 732.167 198.959 727.052 198.959C721.932 198.959 717.714 204.797 717.714 211.932V263.281H736.385V211.932ZM746.729 368.495L727.052 363.557L694.891 355.469L662.734 347.401L644.667 342.886L639.531 423.125L662.615 428.917L694.771 437L726.927 445.089L751.74 451.318L746.729 368.495ZM753.26 272.151H755.714V276.667H759.63V249.823H746.891V272.057L753.26 272.151ZM756.198 521.261L753.26 520.505L726.99 513.88L694.833 505.797L662.672 497.714L636.521 491.089L635.469 490.818L630.406 571.089L636.432 572.594L662.641 579.172L694.802 587.255L726.958 595.339L753.172 601.917L761.255 603.948L756.198 521.261ZM765.682 673.933L753.26 670.818L727.052 664.24L694.891 656.141L662.734 648.073L636.521 641.401L626.281 638.828L621.286 719.125L636.521 722.948L662.734 729.526L694.891 737.61L726.99 745.709L753.203 752.302L770.771 756.714L765.682 673.933ZM868.766 867.948H521.151L507.599 917.834H882.349L868.766 867.948ZM636.521 1049.94H753.26L992.266 1049.66L940.792 940.688H439.536L395.635 1050.25L636.521 1049.94Z"/></g><path fill="#fff" d="M802.223 799.271H793.4L763.405 316.589H771.551V303.703H778.311V266.068H773.707V260.375H777.858V231.896H757.353V204.375H766.072V197.979H811.238L713.301 124.906V116.089H710.816V107.552H708.348L706.707 45.0938C858.514 118.167 963.327 273.427 963.327 453.125C963.337 461.339 963.118 469.547 962.676 477.75C962.238 485.953 961.572 494.135 960.686 502.302C959.796 510.469 958.686 518.604 957.358 526.708C956.025 534.818 954.473 542.88 952.702 550.901C950.931 558.922 948.941 566.891 946.733 574.802C944.53 582.714 942.108 590.563 939.473 598.339C936.837 606.12 933.993 613.823 930.936 621.448C927.884 629.073 924.624 636.609 921.155 644.057C917.691 651.505 914.025 658.854 910.155 666.099C906.29 673.349 902.228 680.484 897.973 687.51C893.712 694.536 889.27 701.438 884.634 708.224C880.004 715.005 875.186 721.656 870.191 728.177C865.191 734.698 860.025 741.078 854.681 747.318C849.332 753.552 843.822 759.641 838.145 765.578C832.467 771.516 826.634 777.297 820.645 782.917C814.65 788.536 808.509 793.984 802.223 799.271Z"/><mask id="mask1_427_136" style="mask-type:luminance" width="569" height="646" x="58" y="260" maskUnits="userSpaceOnUse"><path fill="#fff" d="M58.0508 260H626.665V905.333H58.0508V260Z"/></mask><g mask="url(#mask1_427_136)"><path fill="#fff" d="M506.532 271.292L612.688 260.375H615.953V266.083H611.349V303.719H618.11V316.604H626.24L596.266 799.286H563.683V825.932H535.396V846.297H505.631L484.886 905.01C456.792 903.448 429.089 899.292 401.782 892.531C374.469 885.776 348.026 876.536 322.448 864.813C166.459 793.37 58.0472 636 58.0472 453.188C58.0211 429.766 59.8076 406.49 63.3961 383.349C66.9899 360.208 72.3492 337.479 79.469 315.172L322.448 290.214L506.532 271.292ZM494.49 379.677C491.271 382.271 488.979 385.521 487.61 389.417C496.323 391.135 499.756 386.979 506.474 382.432C508.636 380.953 510.907 379.661 513.276 378.547C528.693 371.411 544.802 368.234 560.266 375.536L561.141 374.771C546.084 365.901 523.5 364.141 506.474 371.88C504.381 372.844 502.375 373.958 500.448 375.224C491.146 357.521 470.235 343.818 452.349 342.104L451.849 344.12C468.052 345.672 487.084 362.021 494.547 379.724L494.49 379.677ZM234.391 629.281L235.896 630.505C260.797 618.823 286.74 623.938 311.563 635.427C315.381 637.214 319.032 639.292 322.511 641.672C333.334 649.005 338.813 655.688 352.86 652.917C351.771 649.849 350.282 646.99 348.391 644.339C346.495 641.688 344.271 639.349 341.719 637.323C353.766 608.839 384.401 582.51 410.511 580.12L409.698 576.865C380.927 579.516 347.229 601.599 332.219 630.109C329.11 628.052 325.854 626.255 322.448 624.724C295.11 612.151 258.63 615.01 234.391 629.281Z"/></g><path fill="#fff" d="M678.813 107.552V116.088H676.359V124.906L578.375 197.979H623.542V204.375H632.245V214.312L506.531 201.396L322.448 182.489L160.906 165.932C166.13 159.552 171.531 153.323 177.099 147.245C182.667 141.161 188.396 135.239 194.286 129.469C200.182 123.703 206.224 118.104 212.427 112.666C218.625 107.229 224.969 101.969 231.453 96.8748C237.943 91.7862 244.563 86.88 251.318 82.1508C258.073 77.4269 264.953 72.8904 271.958 68.5362C278.964 64.1873 286.083 60.031 293.313 56.0727C300.547 52.1144 307.88 48.3539 315.318 44.7914C322.755 41.2341 330.286 37.88 337.906 34.7341C345.526 31.5883 353.229 28.6508 361.01 25.9269C368.797 23.2029 376.646 20.6925 384.563 18.3956C392.484 16.0987 400.458 14.0258 408.495 12.1664C416.526 10.3071 424.604 8.66643 432.729 7.24976C440.849 5.8331 449.005 4.64039 457.193 3.67164C465.385 2.70289 473.594 1.9581 481.823 1.43726C490.052 0.916432 498.286 0.619557 506.531 0.54664H510.672C525.432 0.531016 540.162 1.23935 554.849 2.67164C569.542 4.09872 584.13 6.24456 598.609 9.10393C613.089 11.9633 627.396 15.5258 641.526 19.7914C655.662 24.0571 669.547 29.005 683.193 34.63L681.25 107.552H678.813Z"/></svg>