<svg xmlns="http://www.w3.org/2000/svg" width="960" height="899" fill="none" viewBox="0 0 960 899"><mask id="mask0_428_165" style="mask-type:luminance" width="960" height="899" x="0" y="0" maskUnits="userSpaceOnUse"><path fill="#fff" d="M0.667969 0H959.944V899H0.667969V0Z"/></mask><g mask="url(#mask0_428_165)"><path fill="#fff" d="M257.516 981.334L421.5 908.688L426.135 895.438L451.068 824.849H483.964V804.469H512.266V777.823H544.182L574.521 290.459L575.516 274.037H566.724V261.151H559.964V244.589H564.568V217.823H560.385V210.464H580.828V161.807H572.099V155.427H548.219L574.464 135.854L600.672 116.287L624.911 98.2241V94.6564H627.396V86.12H629.562L631.854 0.161621H633.781L636.083 86.12H638.266V94.6564H640.766V98.2085L665.021 116.271L691.229 135.844L717.474 155.412H693.578V161.792H684.865V210.464H705.339V217.823H701.182V244.651H705.698V261.209H698.953V274.094H690.146L691.172 290.521L721.448 777.823H753.396V804.469H781.682V824.849H814.568L839.495 895.438L845 908.688L959.943 1047.41H1.75L97.0677 981.334H257.516ZM580.828 217.823H568.094V244.651H572.005V240.136H580.828V217.823ZM609.99 179.932C609.99 172.797 605.792 166.974 600.672 166.959C595.552 166.943 591.339 172.797 591.339 179.932V231.281H609.99V179.932ZM645.781 179.932C645.781 179.084 645.698 178.24 645.531 177.406C645.365 176.573 645.12 175.761 644.792 174.974C644.469 174.188 644.068 173.443 643.594 172.735C643.12 172.026 642.583 171.37 641.984 170.771C641.38 170.167 640.724 169.63 640.016 169.156C639.312 168.682 638.563 168.287 637.776 167.959C636.99 167.636 636.182 167.386 635.344 167.224C634.51 167.057 633.667 166.974 632.818 166.974C631.964 166.974 631.12 167.057 630.286 167.224C629.453 167.386 628.641 167.636 627.854 167.959C627.068 168.287 626.323 168.682 625.615 169.156C624.906 169.63 624.25 170.167 623.651 170.771C623.047 171.37 622.51 172.026 622.036 172.735C621.563 173.443 621.167 174.188 620.839 174.974C620.516 175.761 620.271 176.573 620.104 177.406C619.938 178.24 619.854 179.084 619.854 179.932V231.281H645.781V179.932ZM674.385 179.932C674.385 172.797 670.167 166.959 665.052 166.959C659.932 166.959 655.714 172.797 655.714 179.932V231.281H674.385V179.932ZM684.729 336.495L665.052 331.557L632.891 323.469L600.734 315.401L582.667 310.886L577.531 391.125L600.615 396.917L632.771 405L664.927 413.089L689.74 419.318L684.729 336.495ZM691.26 240.151H693.714V244.667H697.63V217.823H684.891V240.057L691.26 240.151ZM694.198 489.261L691.26 488.505L664.99 481.88L632.833 473.797L600.672 465.714L574.521 459.089L573.469 458.818L568.406 539.089L574.432 540.594L600.641 547.172L632.802 555.255L664.958 563.339L691.172 569.917L699.255 571.948L694.198 489.261ZM703.682 641.933L691.26 638.818L665.052 632.24L632.891 624.141L600.734 616.073L574.521 609.401L564.281 606.828L559.286 687.125L574.521 690.948L600.734 697.526L632.891 705.61L664.99 713.709L691.203 720.302L708.771 724.714L703.682 641.933ZM806.766 835.948H459.151L445.599 885.834H820.349L806.766 835.948ZM574.521 1017.94H691.26L930.266 1017.66L878.792 908.688H377.536L333.635 1018.25L574.521 1017.94Z"/></g><path fill="#fff" d="M99.4911 136.395C101.618 132.519 105.858 130.293 110.256 130.744L576.121 178.488C581.733 179.063 586 183.789 586 189.43V219.506C586 225.174 581.693 229.914 576.052 230.455L39.1974 282.012C30.4043 282.857 24.2529 273.515 28.5022 265.771L99.4911 136.395Z"/></svg>