<svg id="visual" viewBox="0 0 960 540" width="960" height="540" xmlns="http://www.w3.org/2000/svg" xmlns:xlink="http://www.w3.org/1999/xlink" version="1.1"><path d="M0 132L22.8 130.5C45.7 129 91.3 126 137 129.3C182.7 132.7 228.3 142.3 274 145C319.7 147.7 365.3 143.3 411.2 140.2C457 137 503 135 548.8 130C594.7 125 640.3 117 686 117.7C731.7 118.3 777.3 127.7 823 138.5C868.7 149.3 914.3 161.7 937.2 167.8L960 174L960 0L937.2 0C914.3 0 868.7 0 823 0C777.3 0 731.7 0 686 0C640.3 0 594.7 0 548.8 0C503 0 457 0 411.2 0C365.3 0 319.7 0 274 0C228.3 0 182.7 0 137 0C91.3 0 45.7 0 22.8 0L0 0Z" fill="#232946"></path><path d="M0 126L22.8 120.3C45.7 114.7 91.3 103.3 137 99.8C182.7 96.3 228.3 100.7 274 106.5C319.7 112.3 365.3 119.7 411.2 116.7C457 113.7 503 100.3 548.8 95.3C594.7 90.3 640.3 93.7 686 98.8C731.7 104 777.3 111 823 111.3C868.7 111.7 914.3 105.3 937.2 102.2L960 99L960 0L937.2 0C914.3 0 868.7 0 823 0C777.3 0 731.7 0 686 0C640.3 0 594.7 0 548.8 0C503 0 457 0 411.2 0C365.3 0 319.7 0 274 0C228.3 0 182.7 0 137 0C91.3 0 45.7 0 22.8 0L0 0Z" fill="#202540"></path><path d="M0 69L22.8 75.2C45.7 81.3 91.3 93.7 137 97.7C182.7 101.7 228.3 97.3 274 92.3C319.7 87.3 365.3 81.7 411.2 76.8C457 72 503 68 548.8 68.7C594.7 69.3 640.3 74.7 686 75.7C731.7 76.7 777.3 73.3 823 73.2C868.7 73 914.3 76 937.2 77.5L960 79L960 0L937.2 0C914.3 0 868.7 0 823 0C777.3 0 731.7 0 686 0C640.3 0 594.7 0 548.8 0C503 0 457 0 411.2 0C365.3 0 319.7 0 274 0C228.3 0 182.7 0 137 0C91.3 0 45.7 0 22.8 0L0 0Z" fill="#1d213a"></path><path d="M0 50L22.8 54C45.7 58 91.3 66 137 69.2C182.7 72.3 228.3 70.7 274 71.3C319.7 72 365.3 75 411.2 75.2C457 75.3 503 72.7 548.8 73.5C594.7 74.3 640.3 78.7 686 77.5C731.7 76.3 777.3 69.7 823 64.5C868.7 59.3 914.3 55.7 937.2 53.8L960 52L960 0L937.2 0C914.3 0 868.7 0 823 0C777.3 0 731.7 0 686 0C640.3 0 594.7 0 548.8 0C503 0 457 0 411.2 0C365.3 0 319.7 0 274 0C228.3 0 182.7 0 137 0C91.3 0 45.7 0 22.8 0L0 0Z" fill="#1a1d34"></path><path d="M0 18L22.8 23.3C45.7 28.7 91.3 39.3 137 39.5C182.7 39.7 228.3 29.3 274 29.5C319.7 29.7 365.3 40.3 411.2 42.5C457 44.7 503 38.3 548.8 38.2C594.7 38 640.3 44 686 45.3C731.7 46.7 777.3 43.3 823 43.3C868.7 43.3 914.3 46.7 937.2 48.3L960 50L960 0L937.2 0C914.3 0 868.7 0 823 0C777.3 0 731.7 0 686 0C640.3 0 594.7 0 548.8 0C503 0 457 0 411.2 0C365.3 0 319.7 0 274 0C228.3 0 182.7 0 137 0C91.3 0 45.7 0 22.8 0L0 0Z" fill="#171a2e"></path></svg>